<svg width="148" height="98" viewBox="0 0 148 98" fill="none" xmlns="http://www.w3.org/2000/svg">
<path d="M96.6248 16.1099L84.4545 21.9291L82.3188 35.5077L93.7152 43.9944L106.566 37.6899L107.778 24.1114L96.6248 16.1099Z" fill="#6A67CE"/>
<path d="M131.503 19.2627L119.333 25.082L117.197 38.6598L128.594 47.1465L141.445 40.842L142.657 27.2642L131.503 19.2627Z" fill="#6A67CE"/>
<path d="M111.451 47.7041L99.2804 53.5234L97.1455 67.1019L108.542 75.5879L121.393 69.2841L122.605 55.7056L111.451 47.7041Z" fill="#6A67CE"/>
<path d="M102.722 7.62397L114.118 16.1106L126.969 9.8062L127.121 8.10333C117.444 1.14712 108.295 0.0618297 103.92 0L102.722 7.62397Z" fill="#6A67CE"/>
<path d="M144.912 51.0615L132.742 56.8808L130.606 70.4594L138.324 76.2059C142.401 70.7991 146.401 63.2369 148 53.2772L144.912 51.0615Z" fill="#6A67CE"/>
<path d="M96.0182 0.834473C96.0182 0.834473 63.77 3.86559 36.4922 35.1442C36.4922 35.1442 61.8308 14.4276 96.0182 8.05546V0.834473Z" fill="#9896D7"/>
<path d="M76.0142 25.4453L75.1653 38.2964C75.1653 38.2964 82.6817 44.3572 83.4091 47.1461C83.4091 47.1461 49.706 43.3876 14.063 62.4217C14.0637 62.4217 27.2778 34.5379 76.0142 25.4453Z" fill="#9896D7"/>
<path d="M89.5928 55.9966C89.5928 55.9966 89.9565 60.2396 88.3802 70.4233C88.3802 70.4233 94.6847 75.6359 98.0787 79.5159C98.0787 79.5159 53.4638 63.5129 0 89.6996C0 89.6996 13.6993 56.724 89.5928 55.9966Z" fill="#9896D7"/>
<path d="M15.2764 97.0953C15.2764 97.0953 26.5512 86.7901 56.0113 83.2745C67.6498 82.062 82.198 83.7597 85.8351 84.3657C89.4721 84.9716 111.658 88.4879 124.266 78.5464L131.419 83.6383C131.419 83.6383 119.174 98.1864 87.5321 93.822C55.8898 89.4575 25.0964 91.2761 15.2764 97.0953Z" fill="#9896D7"/>
</svg>
