<svg width="220" height="28" viewBox="0 0 220 28" fill="none" xmlns="http://www.w3.org/2000/svg">
<path d="M0 0.120708H27.3767V26.9761H0V0.120708ZM3.66146 8.27631H10.7972V23.687H16.9674V8.27631H23.9852V3.71499H3.66146V8.27631Z" fill="#231F20"/>
<path d="M10.7982 23.687V8.2763H3.66113V3.715H23.9862V8.2763H16.9684V23.687H10.7982Z" fill="white"/>
<path d="M30.6128 0.000720978H58.0397V27.0771H30.6128V0.000720978ZM34.3759 16.4639H41.41V23.449H47.3429V16.4639H54.3783V10.4458H47.3429V3.51092H41.41V10.4458H34.3759V16.4639Z" fill="#ED1C24"/>
<path d="M41.4123 23.4507V16.4656H34.377V10.4475H41.4123V3.51258H47.3452V10.4475H54.3793V16.4656H47.3452V23.4507H41.4123Z" fill="white"/>
<path d="M73.3485 26.3452V6.57902H63.0552V0.589357H91.7298V6.57902H81.6142V26.3452H73.3485Z" fill="white"/>
<path d="M94.2524 0.587374H102.655V26.3433H94.2524V0.587374Z" fill="white"/>
<path d="M201.618 26.3452V6.57902H191.324V0.589357H219.999V6.57902H209.896V26.3452H201.618Z" fill="white"/>
<path d="M162.456 13.4061C162.443 4.44141 169.132 0.000183105 177.369 0.000183105C185.607 0.000183105 192.269 5.00291 192.282 13.4061C192.296 21.8631 185.607 26.7988 177.369 26.7988C169.132 26.7988 162.456 22.9333 162.456 13.4061ZM170.803 13.4061C170.803 18.286 172.696 22.2479 177.369 22.2479C181.728 22.2479 183.798 18.286 183.798 13.4061C183.798 8.52624 181.413 4.56528 177.369 4.56528C172.627 4.56528 170.803 8.52624 170.803 13.4061Z" fill="white"/>
<path d="M142.268 26.5507C137.759 25.6328 133.454 22.3014 133.784 17.3809H141.623C142.103 18.4359 141.912 19.5193 142.638 20.5337C143.036 21.0952 143.488 21.5754 144.05 21.8628C144.502 22.0963 144.927 22.3837 145.421 22.5075C146.722 22.8355 148.065 22.8771 149.299 22.4659C150.204 22.1786 151.013 21.5612 151.424 20.6433C151.657 20.1488 151.643 19.5599 151.466 19.0258C151.355 18.7243 151.164 18.4359 151.013 18.1892C150.41 17.2439 149.326 17.0103 148.299 16.6813C143.748 15.2558 137.745 15.8315 135.25 11.0339C134.51 9.60828 134.468 8.00501 134.853 6.40073C135.126 5.26352 135.866 4.33141 136.661 3.57699C137.403 2.8642 138.238 2.16562 139.225 1.72698C144.05 -0.453016 149.602 -0.219481 154.316 1.84984C157.126 3.07032 159.442 5.67474 159.552 8.92291H152.109C151.766 7.60699 151.095 6.45556 149.931 5.67474C148.477 4.72842 146.819 4.61876 145.174 5.0442C143.926 5.37317 142.556 6.44135 143.077 7.88114C143.378 8.74522 144.297 9.14223 145.174 9.37576C149.326 10.4998 153.48 10.7191 157.249 13.0077C159.1 14.1318 160.114 16.0924 160.087 18.1343C160.003 24.8865 153.625 27.0747 147.511 27.0757C145.681 27.0757 143.875 26.8787 142.268 26.5507Z" fill="white"/>
<path d="M113.852 26.4407C109.343 25.5228 105.053 22.1914 105.382 17.2709H113.209C113.688 18.3258 113.496 19.4224 114.223 20.4226C114.634 20.9851 115.073 21.4644 115.648 21.7527C116.087 21.9863 116.511 22.2604 117.018 22.3975C118.321 22.7254 119.651 22.7539 120.884 22.3558C121.802 22.0675 122.597 21.4512 123.023 20.5333C123.242 20.0388 123.242 19.4499 123.05 18.9158C122.94 18.6142 122.762 18.3258 122.597 18.0791C122.008 17.1328 120.925 16.9003 119.897 16.5713C115.333 15.1457 109.329 15.7214 106.834 10.9238C106.109 9.49822 106.067 7.89394 106.437 6.29067C106.712 5.15346 107.452 4.22135 108.246 3.46693C109 2.75414 109.823 2.05556 110.809 1.61692C115.648 -0.563076 121.199 -0.32954 125.914 1.73978C128.711 2.96026 131.026 5.56468 131.15 8.81285H123.694C123.352 7.49693 122.694 6.3455 121.515 5.57788C120.075 4.61835 118.417 4.5087 116.758 4.93312C115.525 5.26312 114.154 6.33129 114.662 7.77108C114.976 8.63516 115.895 9.03217 116.758 9.26469C120.912 10.3897 125.078 10.609 128.848 12.8977C130.699 14.0359 131.713 15.9814 131.685 18.0243C131.59 24.7724 125.218 26.9707 119.106 26.9707C117.272 26.9707 115.463 26.7727 113.852 26.4407Z" fill="white"/>
</svg>
