<svg width="121" height="80" viewBox="0 0 121 80" fill="none" xmlns="http://www.w3.org/2000/svg">
<path d="M78.8475 13.146L68.9164 17.8946L67.1737 28.9748L76.4732 35.9L86.9593 30.7555L87.9488 19.6753L78.8475 13.146Z" fill="white"/>
<path d="M107.309 15.7183L97.378 20.4669L95.6353 31.5465L104.935 38.4717L115.421 33.3272L116.41 22.2476L107.309 15.7183Z" fill="white"/>
<path d="M90.9443 38.9272L81.0126 43.6758L79.2705 54.7561L88.57 61.6807L99.0567 56.5368L100.046 45.4566L90.9443 38.9272Z" fill="white"/>
<path d="M83.825 6.22125L93.1245 13.1465L103.611 8.00197L103.735 6.61241C95.8383 0.936066 88.3729 0.0504538 84.8031 0L83.825 6.22125Z" fill="white"/>
<path d="M118.249 41.667L108.318 46.4156L106.575 57.4959L112.872 62.1851C116.199 57.7731 119.463 51.6023 120.769 43.475L118.249 41.667Z" fill="white"/>
<path d="M78.3535 0.680664C78.3535 0.680664 52.0385 3.15409 29.7795 28.6777C29.7795 28.6777 50.4561 11.7728 78.3535 6.57307V0.680664Z" fill="white"/>
<path d="M62.0286 20.7637L61.3359 31.2503C61.3359 31.2503 67.4693 36.196 68.0628 38.4717C68.0628 38.4717 40.5608 35.4047 11.4757 50.9368C11.4763 50.9368 22.2592 28.1833 62.0286 20.7637Z" fill="white"/>
<path d="M73.109 45.6938C73.109 45.6938 73.4058 49.1562 72.1196 57.4662C72.1196 57.4662 77.2641 61.7197 80.0337 64.8858C80.0337 64.8858 43.6274 51.8272 0.000366211 73.1959C0.000366211 73.1959 11.1791 46.2874 73.109 45.6938Z" fill="white"/>
<path d="M12.4673 79.2309C12.4673 79.2309 21.6677 70.8217 45.7074 67.953C55.2046 66.9635 67.0761 68.3489 70.0439 68.8433C73.0118 69.3378 91.1158 72.2071 101.404 64.0947L107.241 68.2497C107.241 68.2497 97.2492 80.1212 71.4287 76.5598C45.6083 72.9983 20.4805 74.4823 12.4673 79.2309Z" fill="white"/>
</svg>
