<svg width="23" height="28" viewBox="0 0 23 28" fill="none" xmlns="http://www.w3.org/2000/svg">
<path d="M16.1813 4.00037H18.6813C19.3443 4.00037 19.9802 4.26375 20.449 4.73258C20.9179 5.20142 21.1812 5.83729 21.1812 6.50032V24C21.1812 24.663 20.9179 25.2989 20.449 25.7677C19.9802 26.2365 19.3443 26.4999 18.6813 26.4999H3.68159C3.01856 26.4999 2.38269 26.2365 1.91386 25.7677C1.44503 25.2989 1.18164 24.663 1.18164 24V6.50032C1.18164 5.83729 1.44503 5.20142 1.91386 4.73258C2.38269 4.26375 3.01856 4.00037 3.68159 4.00037H6.18154" stroke="#333333" stroke-width="2" stroke-linecap="round" stroke-linejoin="round"/>
<path d="M14.9293 1.5H7.42942C7.0979 1.5 6.77997 1.63169 6.54555 1.86611C6.31114 2.10053 6.17944 2.41846 6.17944 2.74998V5.24993C6.17944 5.58144 6.31114 5.89938 6.54555 6.13379C6.77997 6.36821 7.0979 6.4999 7.42942 6.4999H14.9293C15.2608 6.4999 15.5787 6.36821 15.8131 6.13379C16.0476 5.89938 16.1792 5.58144 16.1792 5.24993V2.74998C16.1792 2.41846 16.0476 2.10053 15.8131 1.86611C15.5787 1.63169 15.2608 1.5 14.9293 1.5V1.5Z" stroke="#333333" stroke-width="2" stroke-linecap="round" stroke-linejoin="round"/>
<path d="M11.1802 12.7498H16.1801" stroke="#333333" stroke-width="2" stroke-linecap="round" stroke-linejoin="round"/>
<path d="M11.1802 19H16.1801" stroke="#333333" stroke-width="2" stroke-linecap="round" stroke-linejoin="round"/>
<path d="M6.17944 12.7498H6.1917" stroke="#333333" stroke-width="2" stroke-linecap="round" stroke-linejoin="round"/>
<path d="M6.17944 19H6.1917" stroke="#333333" stroke-width="2" stroke-linecap="round" stroke-linejoin="round"/>
</svg>
