<svg width="28" height="26" viewBox="0 0 28 26" fill="none" xmlns="http://www.w3.org/2000/svg">
<path d="M1.18589 11.8462C1.17074 11.6718 1.19202 11.4961 1.24836 11.3304C1.30471 11.1646 1.39489 11.0124 1.51319 10.8833C1.63148 10.7543 1.77531 10.6513 1.93555 10.5807C2.09579 10.5102 2.26893 10.4738 2.44399 10.4738H4.85599C5.191 10.4738 5.51229 10.6068 5.74918 10.8437C5.98607 11.0806 6.11915 11.4019 6.11915 11.7369V23.7369C6.11915 24.0719 5.98607 24.3932 5.74918 24.6301C5.51229 24.867 5.191 25.0001 4.85599 25.0001H3.48799C3.17184 25.0001 2.86716 24.8817 2.63411 24.668C2.40106 24.4544 2.2566 24.1611 2.22926 23.8462L1.18589 11.8462V11.8462Z" stroke="#333333" stroke-width="2" stroke-linecap="round" stroke-linejoin="round"/>
<path d="M9.90894 11.3421C9.90894 10.8141 10.2374 10.3417 10.7142 10.1168C11.7557 9.62547 13.5298 8.63831 14.33 7.30379C15.3614 5.58337 15.5559 2.47536 15.5875 1.76358C15.5919 1.66379 15.5894 1.564 15.6026 1.46547C15.7738 0.231996 18.1542 1.67263 19.0668 3.196C19.5626 4.0221 19.6258 5.10779 19.574 5.956C19.5178 6.86294 19.2519 7.73894 18.991 8.60926L18.4353 10.4642H25.2923C25.4875 10.4642 25.68 10.5094 25.8547 10.5963C26.0295 10.6832 26.1817 10.8094 26.2995 10.965C26.4173 11.1206 26.4974 11.3014 26.5336 11.4931C26.5698 11.6849 26.5611 11.8825 26.5081 12.0703L23.1165 24.0804C23.0416 24.3453 22.8823 24.5785 22.6627 24.7445C22.4431 24.9105 22.1754 25.0002 21.9001 25H11.1721C10.8371 25 10.5158 24.8669 10.2789 24.63C10.042 24.3931 9.90894 24.0718 9.90894 23.7368V11.3421Z" stroke="#333333" stroke-width="2" stroke-linecap="round" stroke-linejoin="round"/>
</svg>
