<svg width="25" height="32" viewBox="0 0 25 32" fill="none" xmlns="http://www.w3.org/2000/svg">
<path d="M22.6028 16.7511L17.6468 11.8596V11.7915V2.07474C17.6468 0.93102 16.7291 0 15.6007 0H2.04579C0.9174 0 -0.000244141 0.93102 -0.000244141 2.07474V27.6069C-0.000244141 28.7511 0.9174 29.6821 2.04579 29.6821H15.6007C15.9163 29.6821 16.212 29.6031 16.4795 29.473L17.8192 30.8253C17.8805 30.8872 17.9445 30.9477 17.9736 30.9715L18.7686 31.7733C18.9184 31.9241 19.1148 32 19.3112 32C19.5076 32 19.7046 31.9246 19.8539 31.7733C20.1537 31.4708 20.1537 30.9802 19.8539 30.6776L19.0237 29.8427C18.9833 29.8065 18.9435 29.7688 18.9051 29.7301L17.5138 28.3256L15.5972 26.3908L14.0974 24.8769C13.1803 23.9506 13.1803 22.4428 14.0974 21.517C14.5143 21.0962 15.0514 20.8762 15.5982 20.838C16.2545 20.7921 16.9261 21.0115 17.4263 21.5165L17.6478 21.7401L22.2386 26.3743C22.2826 26.4177 22.3225 26.4626 22.3613 26.5086L23.1711 27.3291C23.4708 27.6316 23.9562 27.6316 24.256 27.3291C24.4186 27.1649 24.4851 26.946 24.4708 26.7306H24.4846C24.4846 25.8626 24.4846 24.2077 24.4846 21.9234C24.4836 18.4535 22.6028 16.7511 22.6028 16.7511ZM18.5102 20.4213C18.2478 20.1569 17.9557 19.9411 17.6468 19.7681C17.0135 19.4134 16.303 19.2523 15.5977 19.2822C14.657 19.322 13.7282 19.6989 13.0115 20.4218C11.4959 21.9523 11.4959 24.4421 13.0115 25.9726L13.8775 26.8468H2.04529V2.83219H15.6002L15.5987 9.81639L15.5977 15.8835L17.4289 17.6191V17.6789L20.2033 20.3082L20.2171 22.1443L18.5102 20.4213Z" fill="#333333"/>
<path d="M7.61121 16.5788L6.88696 14.3498L8.78285 12.9714L10.6793 14.3498L9.95505 16.5788H7.61121Z" fill="#333333"/>
<path d="M14.0749 14.6185C14.0527 13.8458 13.8641 13.1159 13.5434 12.4597C12.8439 11.0262 11.5197 9.95299 9.92431 9.60093C9.55575 9.51948 9.17529 9.47363 8.7825 9.47363C8.39074 9.47363 8.01035 9.5195 7.64282 9.60042C6.0459 9.95197 4.72112 11.0257 4.02163 12.4597C3.70101 13.1159 3.51234 13.8458 3.49018 14.6185C3.48811 14.6711 3.48193 14.7216 3.48193 14.7742C3.48193 16.2093 4.05722 17.5113 4.98713 18.4665C5.51446 19.0093 6.15772 19.4361 6.87629 19.7144C7.46856 19.9438 8.11032 20.0747 8.7825 20.0747C9.45467 20.0747 10.0964 19.9438 10.6887 19.7144C11.4073 19.4361 12.0506 19.0093 12.5779 18.4665C13.5078 17.5108 14.0831 16.2093 14.0831 14.7742C14.0831 14.7216 14.0769 14.6711 14.0749 14.6185ZM12.4228 17.8722L12.2186 17.0917L10.2738 16.9783L9.56502 18.7933L10.2263 19.3356C9.77015 19.4804 9.28611 19.5593 8.7825 19.5593C8.27888 19.5593 7.79491 19.4804 7.33871 19.3356L8.00004 18.7933L7.29127 16.9783L5.34642 17.0917L5.1423 17.8722C4.46961 17.083 4.05257 16.0742 4.00772 14.9696L4.69743 15.4371L6.2356 14.2407L5.57219 12.4082L4.60978 12.4401C5.21855 11.3561 6.23664 10.5339 7.45418 10.1808L7.20676 10.9386L8.78306 12.0855L10.3604 10.9406L10.1135 10.1808C11.3305 10.5339 12.3485 11.3561 12.9568 12.4401L11.9944 12.4082L11.331 14.2407L12.8692 15.4371L13.5589 14.9696C13.5125 16.0742 13.0954 17.0835 12.4228 17.8722Z" fill="#333333"/>
</svg>
