<svg width="27" height="32" viewBox="0 0 27 32" fill="none" xmlns="http://www.w3.org/2000/svg">
<path d="M21.3328 19.1966C21.3328 14.8875 17.7509 11.3942 13.3328 11.3942V19.1966L18.9744 24.7275C20.4301 23.3144 21.3328 21.3583 21.3328 19.1966Z" fill="#333333"/>
<path d="M17.7956 7.26135C18.1495 6.57861 18.3528 5.80744 18.3528 4.98794C18.3528 2.23744 16.1007 0 13.3331 0C10.5656 0 8.31332 2.23795 8.31332 4.98794C8.31332 5.80744 8.51719 6.57861 8.87057 7.26135C3.97911 9.06743 0.484619 13.752 0.484619 19.233C0.484619 26.2728 6.24841 32 13.3331 32C20.4178 32 26.1816 26.2728 26.1816 19.233C26.1816 13.752 22.6871 9.06743 17.7956 7.26135ZM9.86551 4.98794C9.86551 3.08829 11.4213 1.54234 13.3331 1.54234C15.2449 1.54234 16.8006 3.08829 16.8006 4.98794C16.8006 5.65629 16.6051 6.27835 16.2724 6.80686C15.3276 6.58631 14.344 6.46602 13.3325 6.46602C12.321 6.46602 11.338 6.58631 10.3927 6.80686C10.061 6.27835 9.86551 5.65629 9.86551 4.98794ZM13.3331 29.9435C7.38978 29.9435 2.5542 25.1386 2.5542 19.233C2.5542 14.371 5.83394 10.2627 10.3084 8.95946C11.2687 8.67978 12.2823 8.52248 13.3331 8.52248C14.3839 8.52248 15.397 8.67978 16.3578 8.95946C20.8322 10.2627 24.112 14.371 24.112 19.233C24.112 25.1391 19.2764 29.9435 13.3331 29.9435Z" fill="#333333"/>
<path d="M15.0304 6.21127C15.0304 6.66356 14.6319 7.03053 14.1402 7.03053H12.5267C12.0344 7.03053 11.6365 6.66356 11.6365 6.21127V4.21343C11.6365 3.76114 12.0349 3.39417 12.5267 3.39417H14.1402C14.6325 3.39417 15.0304 3.76114 15.0304 4.21343V6.21127Z" fill="#333333"/>
<path d="M24.4692 10.4243L25.4617 9.49676C25.7899 9.18954 25.7741 8.67716 25.4264 8.35169L24.284 7.28458C23.9357 6.95911 23.3875 6.94432 23.0593 7.25105L22.0615 8.18302C22.9549 8.8384 23.7638 9.59143 24.4692 10.4243Z" fill="#333333"/>
</svg>
