<svg width="28" height="26" viewBox="0 0 28 26" fill="none" xmlns="http://www.w3.org/2000/svg">
<path d="M1.55978 14.7899C1.54527 14.9641 1.56708 15.1394 1.62383 15.3048C1.68058 15.4701 1.77103 15.6219 1.88947 15.7505C2.0079 15.8791 2.15174 15.9817 2.31188 16.0518C2.47201 16.1219 2.64496 16.1581 2.81978 16.1579H5.23557C5.57058 16.1579 5.89187 16.0248 6.12876 15.7879C6.36564 15.551 6.49873 15.2297 6.49873 14.8947V2.26316C6.49873 1.92815 6.36564 1.60686 6.12876 1.36997C5.89187 1.13308 5.57058 1 5.23557 1H3.87136C3.55451 1.00002 3.24923 1.11911 3.01608 1.33366C2.78293 1.54822 2.63892 1.84256 2.61262 2.15832L1.56041 14.7899H1.55978Z" stroke="#333333" stroke-width="2" stroke-linecap="round" stroke-linejoin="round"/>
<path d="M10.2891 14.6579C10.2891 15.1859 10.6175 15.6583 11.0943 15.8832C12.1358 16.3745 13.9099 17.3617 14.7101 18.6962C15.7415 20.4166 15.936 23.5246 15.9676 24.2364C15.972 24.3362 15.9695 24.436 15.9827 24.5345C16.1539 25.768 18.5343 24.3274 19.447 22.804C19.9427 21.9779 20.0059 20.8922 19.9541 20.044C19.8979 19.1377 19.632 18.2611 19.3712 17.3907L18.8154 15.5358H25.6724C25.8676 15.5358 26.0601 15.4906 26.2349 15.4037C26.4096 15.3168 26.5619 15.1906 26.6797 15.035C26.7974 14.8794 26.8776 14.6986 26.9138 14.5068C26.95 14.3151 26.9412 14.1175 26.8882 13.9297L23.4966 1.91958C23.4218 1.6547 23.2624 1.42152 23.0428 1.25553C22.8233 1.08953 22.5555 0.999807 22.2802 1H11.5522C11.2172 1 10.8959 1.13308 10.659 1.36997C10.4221 1.60686 10.2891 1.92815 10.2891 2.26316V14.6579Z" stroke="#333333" stroke-width="2" stroke-linecap="round" stroke-linejoin="round"/>
</svg>
