<svg width="31" height="28" viewBox="0 0 31 28" fill="none" xmlns="http://www.w3.org/2000/svg">
<path d="M21.7371 9.51092L20.7925 6.60315L23.2659 4.80505L25.7393 6.60315L24.7943 9.51092H21.7371Z" fill="#333333"/>
<path d="M30.1705 6.95504C30.1422 5.94718 29.8958 4.99496 29.4776 4.13877C28.5649 2.26934 26.8377 0.869276 24.7565 0.408873C24.2759 0.30342 23.7792 0.243774 23.2672 0.243774C22.756 0.243774 22.2597 0.30342 21.7805 0.408873C19.6979 0.867481 17.9699 2.26799 17.0571 4.13877C16.6389 4.99496 16.393 5.94718 16.3638 6.95504C16.3616 7.0228 16.3535 7.08967 16.3535 7.15788C16.3535 9.03 17.1042 10.7276 18.3167 11.9737C19.0046 12.6818 19.8442 13.2391 20.7811 13.6017C21.5539 13.901 22.3903 14.072 23.2676 14.072C24.1449 14.072 24.9813 13.901 25.754 13.6017C26.691 13.2391 27.5306 12.6818 28.2185 11.9737C29.431 10.7276 30.1817 9.02955 30.1817 7.15788C30.1813 7.08967 30.1732 7.02324 30.1705 6.95504ZM28.0157 11.1987L27.7491 10.181L25.212 10.0334L24.2876 12.4L25.1505 13.1077C24.555 13.2966 23.9241 13.3994 23.2672 13.3994C22.6102 13.3994 21.9793 13.2966 21.3838 13.1077L22.2467 12.4L21.3223 10.0334L18.7852 10.181L18.5182 11.1987C17.6409 10.1698 17.0966 8.85321 17.0383 7.41232L17.938 8.02215L19.9443 6.461L19.0791 4.0715L17.8236 4.11275C18.6178 2.69923 19.9461 1.6263 21.5337 1.1659L21.2106 2.15402L23.2663 3.64966L25.3237 2.15671L25.0015 1.1659C26.5891 1.6263 27.9169 2.69923 28.7103 4.11275L27.4552 4.0715L26.5891 6.461L28.5963 8.02215L29.496 7.41232C29.4377 8.85366 28.8934 10.1702 28.0157 11.1987Z" fill="#333333"/>
<path d="M18.5422 14.313C17.0203 13.4653 16.3527 12.101 16.3527 12.101C16.3527 12.101 12.6408 16.8935 9.15216 20.1748C5.66347 23.4562 0.392822 21.5021 0.392822 21.5021C1.52588 22.2971 2.58414 22.7926 3.55775 23.0731C6.83353 23.8897 9.48712 22.1538 10.5449 21.3004C10.5556 21.2889 10.5627 21.2809 10.5627 21.2809L18.5422 14.313Z" fill="#333333"/>
<path d="M24.0012 15.7475C22.9735 15.8527 21.8694 15.7674 20.7243 15.3798C20.6913 15.3696 20.6611 15.3594 20.6327 15.3501C20.6133 15.343 20.5939 15.3372 20.5745 15.3301C20.44 15.2817 20.305 15.2293 20.1701 15.1725L12.2327 22.1846C11.4812 22.7969 10.3849 23.5858 9.15038 24.1662L9.14812 24.1706C9.14812 24.1706 7.71416 24.9969 5.66992 25.174C5.75613 25.2384 5.84054 25.305 5.92855 25.3676C5.93623 25.3729 5.94342 25.3778 5.95109 25.3831C6.68591 25.8973 7.47265 26.344 8.30407 26.7125C8.34649 26.7316 8.38891 26.7507 8.43134 26.7698C8.56224 26.8262 8.69407 26.8799 8.82722 26.9327C8.88906 26.958 8.95085 26.9811 9.01269 27.0046C9.13771 27.0521 9.26367 27.0992 9.39005 27.1436C9.46272 27.1689 9.53628 27.192 9.6094 27.2164C9.73127 27.2564 9.8518 27.2972 9.97548 27.3336C10.0648 27.3607 10.156 27.3847 10.2467 27.41C10.4273 27.4593 10.6097 27.5072 10.7929 27.5494C10.9152 27.5787 11.0371 27.6076 11.1603 27.6333C11.2519 27.6515 11.344 27.6679 11.4361 27.6852C11.5584 27.7079 11.6812 27.7306 11.8049 27.7501C11.896 27.7639 11.9877 27.7772 12.0793 27.7901C12.2079 27.8083 12.3375 27.8238 12.4679 27.8385C12.5546 27.8478 12.6417 27.8575 12.7288 27.8655C12.8741 27.8793 13.0204 27.89 13.1671 27.8984C13.2402 27.9029 13.3133 27.9086 13.3869 27.9122C13.6076 27.9224 13.8297 27.9286 14.0536 27.9286C14.2942 27.9286 14.5334 27.9224 14.7708 27.9113C14.8529 27.9068 14.9329 27.8984 15.0146 27.893C15.1694 27.8828 15.3246 27.8731 15.4777 27.8584C15.5842 27.8482 15.6893 27.8313 15.7945 27.8193C15.9213 27.8038 16.049 27.7901 16.175 27.7719C16.2856 27.7554 16.3943 27.7337 16.5045 27.7146C16.6236 27.6937 16.7433 27.6755 16.8611 27.6511C16.9793 27.6276 17.0953 27.5992 17.2122 27.5721C17.3192 27.5477 17.4275 27.5259 17.5336 27.4992C17.6586 27.4682 17.7818 27.4308 17.9055 27.3962C18.0017 27.3691 18.0992 27.3452 18.1944 27.3154C18.3244 27.2755 18.4517 27.2315 18.5803 27.188C18.6665 27.1596 18.7546 27.1325 18.8403 27.1014C18.9762 27.053 19.1098 26.9993 19.2434 26.9469C19.3192 26.9167 19.3964 26.8887 19.4718 26.8585C19.6108 26.8004 19.7467 26.7382 19.8834 26.6765C19.9511 26.6463 20.0206 26.6175 20.0874 26.5855C20.23 26.5189 20.37 26.4465 20.5099 26.3746C20.5686 26.3453 20.6286 26.3164 20.6868 26.2862C20.8326 26.2081 20.9762 26.1268 21.1188 26.0443C21.168 26.0158 21.2195 25.9887 21.2687 25.9594C21.4172 25.8711 21.5625 25.7783 21.7074 25.6855C21.7489 25.6584 21.7918 25.6336 21.8324 25.6065C21.9841 25.5066 22.1326 25.4018 22.2797 25.2961C22.3113 25.2735 22.3447 25.2517 22.3763 25.2295C22.5284 25.1185 22.6769 25.003 22.8241 24.8872C22.8498 24.8663 22.876 24.8473 22.9017 24.8273C23.0538 24.7052 23.2019 24.5781 23.3486 24.4498C23.3675 24.4334 23.3869 24.4179 23.4054 24.4014C23.5571 24.2669 23.7051 24.1293 23.8505 23.9885C23.8626 23.9766 23.8762 23.965 23.8884 23.953C24.0382 23.8074 24.184 23.6582 24.3271 23.5063C24.3348 23.4983 24.342 23.4908 24.3492 23.4837C24.4964 23.3261 24.6399 23.1654 24.7794 23.0015C24.7816 22.998 24.7844 22.9953 24.7871 22.9926C26.7686 20.6639 27.9786 17.6815 28.04 14.4221C26.6042 15.3035 25.2046 15.6569 24.0012 15.7475Z" fill="#333333"/>
<path d="M13.9669 0.0715332C13.3172 0.0715332 12.6791 0.119987 12.053 0.207958C12.0512 0.207958 12.0499 0.208386 12.0486 0.208835C10.9804 0.358744 9.95275 0.632541 8.97799 1.01495C8.96376 1.02078 8.94999 1.0262 8.93576 1.03204C8.70497 1.12315 8.47771 1.22052 8.25359 1.3233C8.24247 1.32868 8.23093 1.3332 8.22026 1.33858C7.0365 1.88751 5.94389 2.60022 4.96914 3.44851C4.96469 3.45255 4.95978 3.45659 4.95578 3.46018C2.0333 6.01179 0.181641 9.77888 0.181641 13.9849C0.181641 16.0953 0.653448 18.0921 1.48813 19.8825C2.26188 20.0854 3.00673 20.1348 3.61906 20.1168C2.56693 18.3174 1.96082 16.2219 1.96082 13.9849C1.96082 11.958 2.45888 10.0477 3.33402 8.36681C3.46921 8.53916 3.57859 8.69986 3.63996 8.83137C4.18426 9.99609 2.67412 10.5747 3.08101 11.6379C3.23843 12.0486 3.71247 12.3628 3.98417 12.6464C4.32613 13.0024 4.56181 13.3933 4.82995 13.8089C5.09454 14.2182 5.39115 14.6235 5.54323 15.0872C5.70421 15.5786 5.79539 16.0778 6.096 16.4615C6.91867 17.5113 7.29572 15.6891 7.48293 15.0593C7.72617 14.2411 8.23539 13.5163 8.31943 12.6469C8.41148 11.6913 8.28249 10.861 7.52874 10.3466C7.08361 10.0432 4.82148 9.80083 5.93098 8.73395C6.74742 7.94805 7.70532 9.26179 8.42127 8.43908C9.00736 7.76493 8.43237 6.7187 9.11186 5.98261C10.0977 4.91484 13.9136 5.25374 12.9446 2.98445C12.8148 2.67969 12.6666 2.33003 12.5275 1.9566C13.0002 1.89915 13.48 1.86642 13.9674 1.86642C14.7322 1.86642 15.4793 1.94223 16.205 2.08092C16.5688 1.61548 17.0571 1.0944 17.6979 0.591262C16.5101 0.255087 15.2605 0.0715332 13.9669 0.0715332Z" fill="#333333"/>
</svg>
