<svg width="36" height="30" viewBox="0 0 36 30" fill="none" xmlns="http://www.w3.org/2000/svg">
<path d="M21.3149 6.2839C22.8835 6.2839 24.1552 5.01227 24.1552 3.44365C24.1552 1.87502 22.8835 0.603394 21.3149 0.603394C19.7463 0.603394 18.4746 1.87502 18.4746 3.44365C18.4746 5.01227 19.7463 6.2839 21.3149 6.2839Z" fill="#333333"/>
<path d="M2.87975 29.3966C4.47019 29.3966 5.75949 28.1073 5.75949 26.5168C5.75949 24.9264 4.47019 23.6371 2.87975 23.6371C1.28931 23.6371 0 24.9264 0 26.5168C0 28.1073 1.28931 29.3966 2.87975 29.3966Z" fill="#333333"/>
<path d="M35.2803 7.91925C34.954 7.78196 27.9194 4.88386 22.2822 7.2027C21.7043 7.4406 21.1411 7.73259 20.6014 8.0885L20.5571 8.11904C20.0625 8.47871 19.5834 8.78667 19.1189 9.0542C14.2711 11.846 11.1125 9.94515 10.9545 9.84547C10.4129 9.49567 9.68982 9.64757 9.33484 10.1868C8.97846 10.7289 9.1289 11.4581 9.67099 11.8145C9.78853 11.8921 11.4063 12.9213 14.0407 12.9213C14.8691 12.9213 15.7991 12.8164 16.8133 12.5508L6.71176 27.8734C6.45035 28.2693 6.50729 28.8081 6.86884 29.1386C7.26895 29.5049 7.89046 29.4776 8.25672 29.0775L23.7679 12.1342L25.5066 10.3312C25.5066 10.3312 26.8545 8.58546 28.1531 8.6936C31.4578 8.89436 34.3221 10.0674 34.3681 10.0867C34.9666 10.3378 35.6555 10.057 35.9075 9.45899C36.1595 8.86 35.8783 8.17079 35.2803 7.91925Z" fill="#333333"/>
<path d="M33.2339 18.3614C33.0666 17.8424 32.5103 17.5579 31.9913 17.7253L31.8954 17.7563C31.8954 17.7563 31.7097 17.816 31.3853 17.9213C31.2235 17.9735 31.0279 18.0375 30.8036 18.1103C30.6922 18.147 30.5733 18.1856 30.4477 18.2265C30.3217 18.2618 30.1864 18.2843 30.0477 18.3153C29.7707 18.375 29.4712 18.4395 29.1548 18.5081C28.8384 18.5551 28.5055 18.5749 28.1665 18.6139L27.9103 18.6402L27.6531 18.6332C27.4824 18.6294 27.3099 18.6262 27.135 18.6224C27.0485 18.62 26.9615 18.6224 26.8759 18.6162L26.6216 18.5768L26.1166 18.5034C25.9469 18.4884 25.7922 18.4179 25.6318 18.3807C25.4748 18.3309 25.3122 18.3055 25.1655 18.2411C24.8735 18.109 24.5778 18.0144 24.3281 17.8494C24.0634 17.7178 23.8372 17.5414 23.621 17.3872C23.416 17.2156 23.2214 17.0581 23.0662 16.8875C22.9872 16.8047 22.912 16.7248 22.841 16.6491C22.7766 16.5687 22.7159 16.4925 22.6586 16.4206C22.5457 16.2795 22.463 16.1465 22.3967 16.0464C22.367 15.9961 22.3407 15.9509 22.3177 15.9119C22.2961 15.8747 22.3026 15.87 22.2937 15.8536C22.2909 15.8446 22.2839 15.831 22.2679 15.8004C22.2575 15.7802 22.2533 15.7718 22.2523 15.7699L19.4238 18.896C19.531 19.0037 19.6463 19.1151 19.7774 19.2298C19.8992 19.3342 20.028 19.4451 20.1639 19.5617C20.3073 19.668 20.4578 19.779 20.6148 19.8951C20.9279 20.1255 21.2951 20.3366 21.6816 20.5486C22.0807 20.7437 22.4973 20.9478 22.9557 21.0898C23.401 21.2661 23.8866 21.3512 24.3671 21.4589C24.6083 21.5111 24.8561 21.5176 25.1011 21.5473C25.346 21.5632 25.5924 21.6093 25.8355 21.5962L26.5614 21.5764L26.9201 21.5637C27.0372 21.5515 27.1529 21.5313 27.2681 21.5148C27.4975 21.4796 27.7255 21.4443 27.9502 21.41L28.2831 21.3564C28.3889 21.3277 28.4942 21.299 28.5991 21.2708C29.0142 21.1528 29.419 21.0517 29.7876 20.928C30.1454 20.7842 30.483 20.6488 30.7957 20.5232C30.9499 20.4588 31.1003 20.4038 31.2367 20.339C31.3702 20.2694 31.4967 20.203 31.6156 20.1405C31.8517 20.0159 32.0571 19.9078 32.2273 19.8185C32.5644 19.6398 32.7567 19.5378 32.7567 19.5378C33.1723 19.3177 33.3835 18.8245 33.2339 18.3614Z" fill="#333333"/>
</svg>
