<svg width="31" height="30" viewBox="0 0 31 30" fill="none" xmlns="http://www.w3.org/2000/svg">
<path d="M13.2134 18.4363C13.0714 18.4363 12.9313 18.3739 12.8368 18.254C8.03196 12.1724 8.80464 5.07065 8.83965 4.77089L8.88954 4.34741H11.4747C11.7395 4.34741 11.9543 4.5618 11.9543 4.82703C11.9543 5.09226 11.7395 5.30666 11.4747 5.30666H9.76196C9.67946 6.90476 9.68671 12.7187 13.5894 17.6593C13.7539 17.8675 13.7189 18.1691 13.5107 18.3331C13.422 18.4022 13.3174 18.4363 13.2134 18.4363Z" fill="#333333"/>
<path d="M20.1849 26.9548H15.1815H10.1775C8.8437 27.1976 8.07593 29.8872 8.07593 29.8872H15.1815H22.2865C22.2865 29.8872 21.5187 27.1972 20.1849 26.9548Z" fill="#333333"/>
<path d="M26.8661 2.05175C26.3351 2.05175 25.9041 2.48244 25.9041 3.0131C25.9041 3.54377 26.3351 3.97446 26.8661 3.97446H28.1095C27.4674 11.1144 25.4082 16.1817 21.982 19.0461C21.4486 19.4921 20.9147 19.8498 20.3924 20.1468C22.6911 17.2373 24.882 11.683 24.882 1.07403V0.112671H5.48181V1.07403C5.48181 11.683 7.67276 17.2378 9.97146 20.1473C9.44957 19.8498 8.91612 19.4926 8.38172 19.0461C4.95508 16.1812 2.89591 11.1144 2.25425 3.97446H3.49768C4.0287 3.97446 4.45968 3.54377 4.45968 3.0131C4.45968 2.48244 4.0287 2.05175 3.49768 2.05175H0.181641L0.252863 3.07941C0.824292 11.3374 3.15953 17.218 7.1932 20.5592C9.43562 22.4166 11.718 23.0626 13.288 23.2731L12.7324 25.827H17.6314L17.0763 23.2731C18.6458 23.0626 20.9282 22.4166 23.1706 20.5592C27.2048 17.218 29.539 11.337 30.1109 3.07941L30.1816 2.05175H26.8661ZM17.2447 20.5064C16.6723 20.7895 15.9926 20.9779 15.1821 20.9779C14.3895 20.9779 13.7242 20.7967 13.1605 20.5246C10.9084 18.9153 7.57605 14.4421 7.41203 2.03538H22.9517C22.7896 14.4056 19.4996 18.885 17.2447 20.5064Z" fill="#333333"/>
</svg>
