<svg width="31" height="32" viewBox="0 0 31 32" fill="none" xmlns="http://www.w3.org/2000/svg">
<path d="M29.2087 27.857H1.15462C0.617537 27.857 0.181641 27.4211 0.181641 26.8841V7.91085C0.181641 7.37376 0.617537 6.93787 1.15462 6.93787H29.2087C29.7457 6.93787 30.1816 7.37376 30.1816 7.91085V26.8841C30.1816 27.4216 29.7457 27.857 29.2087 27.857ZM2.12761 25.9111H28.2357V8.88384H2.12761V25.9111Z" fill="#333333"/>
<path d="M15.1813 8.19494C14.9906 8.19494 14.8004 8.12096 14.6573 7.97307L9.03831 2.17563C8.7576 1.88617 8.76445 1.42451 9.05441 1.14381C9.34338 0.863103 9.80505 0.869894 10.0862 1.15984L15.7052 6.95734C15.9859 7.2468 15.9786 7.70846 15.6892 7.98917C15.5471 8.12636 15.3642 8.19494 15.1813 8.19494Z" fill="#333333"/>
<path d="M15.182 8.19515C14.9991 8.19515 14.8161 8.12657 14.6741 7.98938C14.3846 7.70867 14.3773 7.24701 14.658 6.95754L20.277 1.15997C20.5582 0.870503 21.0199 0.863712 21.3089 1.14393C21.5988 1.42464 21.6056 1.8863 21.3249 2.17577L15.7059 7.97328C15.5629 8.12069 15.3722 8.19515 15.182 8.19515Z" fill="#333333"/>
<path d="M19.7946 30.8638C19.7946 29.71 18.7939 28.7742 17.5589 28.7742H12.879C11.6441 28.7742 10.6433 29.7095 10.6433 30.8638V31.0621H19.7951V30.8638H19.7946Z" fill="#333333"/>
<path d="M14.0756 19.0996L13.3921 16.996L15.1819 15.6952L16.9712 16.996L16.2876 19.0996H14.0756Z" fill="#333333"/>
<path d="M20.1774 17.2507C20.1565 16.5214 19.9785 15.8326 19.6759 15.2133C19.0157 13.8603 17.7659 12.8474 16.2602 12.5152C15.9123 12.4383 15.5533 12.395 15.1826 12.395C14.8129 12.395 14.4538 12.4383 14.1069 12.5147C12.5998 12.8465 11.3495 13.8598 10.6893 15.2133C10.3867 15.8326 10.2086 16.5214 10.1877 17.2507C10.1858 17.3003 10.1799 17.348 10.1799 17.3976C10.1799 18.752 10.7229 19.9809 11.6005 20.8823C12.0982 21.3946 12.7054 21.7974 13.3835 22.0601C13.9425 22.2766 14.5482 22.4002 15.1826 22.4002C15.817 22.4002 16.4227 22.2766 16.9817 22.0601C17.6598 21.7974 18.2669 21.3946 18.7646 20.8823C19.6423 19.9804 20.1852 18.752 20.1852 17.3976C20.1852 17.3485 20.1794 17.3003 20.1774 17.2507ZM18.6182 20.3214L18.4255 19.5848L16.59 19.4778L15.9211 21.1908L16.5452 21.7026C16.1147 21.8393 15.6579 21.9137 15.1826 21.9137C14.7073 21.9137 14.2505 21.8393 13.8199 21.7026L14.4441 21.1908L13.7751 19.4778L11.9396 19.5848L11.747 20.3214C11.1121 19.5766 10.7185 18.6245 10.6762 17.582L11.3271 18.0232L12.7788 16.8941L12.1527 15.1646L11.2444 15.1948C11.8189 14.1717 12.7798 13.3957 13.9289 13.0625L13.6954 13.7776L15.1831 14.86L16.6717 13.7795L16.4387 13.0625C17.5873 13.3957 18.5481 14.1717 19.1222 15.1948L18.2139 15.1646L17.5878 16.8941L19.0395 18.0232L19.6905 17.582C19.6467 18.6245 19.2531 19.5771 18.6182 20.3214Z" fill="#333333"/>
</svg>
