<svg width="130" height="57" viewBox="0 0 130 57" fill="none" xmlns="http://www.w3.org/2000/svg">
<path d="M18.6271 43.6927L34.7495 52.1527C35.2876 52.4357 35.2876 52.8894 34.7458 53.1684L27.9305 56.6773C27.3926 56.9563 26.974 56.9409 26.4359 56.6657L0.979031 43.495C0.44304 43.2196 0 42.5296 0 41.975V14.9441C0 14.3858 0.44304 13.7034 0.979031 13.4243L14.8585 6.23203C15.4014 5.95474 15.633 6.19511 15.633 6.56743V38.315C15.633 41.3779 15.9509 42.2386 18.6271 43.6927Z" fill="#E6290F"/>
<path d="M36.8583 34.5115L26.1359 29.1765C25.592 28.9128 25.5843 28.6037 25.5843 28.1034V20.7076C25.5843 20.1183 26.0352 19.9147 26.5866 20.1668L39.4609 26.4091V19.8451C39.4609 15.8476 39.1449 14.6922 36.4513 13.1685L20.0302 4.57838C19.4962 4.29927 19.498 3.8379 20.0341 3.55866L26.571 0.216492C27.1051 -0.0645678 27.3475 -0.0743178 27.8873 0.201022L53.4362 13.3002C53.9732 13.5793 54.4142 14.2617 54.4142 14.8163V41.9752C54.4142 42.5298 53.9731 43.2198 53.4362 43.495L42.3919 49.2139C41.855 49.4892 40.6036 50.1405 40.1984 50.3499C39.7943 50.5591 39.4608 50.6795 39.4608 50.125V39.3657C39.4609 37.2372 39.3233 35.7329 36.8583 34.5115Z" fill="#E6290F"/>
<path d="M130 10.2649V5.98242H103.365V50.9319H114.006V31.3325H128.625V27.0415H114.006V10.2649H130Z" fill="white"/>
<path d="M99.5392 46.6515H82.9272V5.98242H72.29V50.9319H99.5392V46.6515Z" fill="white"/>
</svg>
